<svg xmlns="http://www.w3.org/2000/svg" viewBox="0 0 512 512">
  <defs>
    <linearGradient id="bg" x1="0%" y1="0%" x2="100%" y2="100%">
      <stop offset="0%" style="stop-color:#e20074"/>
      <stop offset="100%" style="stop-color:#b8005c"/>
    </linearGradient>
  </defs>
  <rect width="512" height="512" rx="64" fill="url(#bg)"/>
  <g fill="white" transform="translate(64, 80)">
    <!-- Shield/Eye symbol representing awareness -->
    <path d="M192 48c-88.4 0-160 71.6-160 160 0 88.4 71.6 160 160 160 88.4 0 160-71.6 160-160 0-88.4-71.6-160-160-160zm0 280c-66.3 0-120-53.7-120-120s53.7-120 120-120 120 53.7 120 120-53.7 120-120 120z"/>
    <circle cx="192" cy="208" r="64"/>
    <!-- D letter stylized -->
    <path d="M156 128h48c44.2 0 80 35.8 80 80s-35.8 80-80 80h-48v-160zm40 120h8c22.1 0 40-17.9 40-40s-17.9-40-40-40h-8v80z" opacity="0"/>
  </g>
  <text x="256" y="420" text-anchor="middle" fill="white" font-family="Arial, sans-serif" font-size="72" font-weight="bold">D</text>
</svg>
